Coordinates
version=1
nRows=26
nColumns=24
inDegrees=yes

Units are S.I. units (second, meters, Newtons, ...)
Angles are in degrees.

endheader
time	pelvis_tilt	pelvis_list	pelvis_rotation	pelvis_tx	pelvis_ty	pelvis_tz	hip_flexion_r	hip_adduction_r	hip_rotation_r	knee_angle_r	ankle_angle_r	subtalar_angle_r	mtp_angle_r	hip_flexion_l	hip_adduction_l	hip_rotation_l	knee_angle_l	ankle_angle_l	subtalar_angle_l	mtp_angle_l	lumbar_extension	lumbar_bending	lumbar_rotation
      1.77466667	      1.30474403	      5.12414839	     -4.88727758	      1.37404135	      1.02231022	      0.23480232	     15.83866423	     -5.50272918	      0.37747792	    -60.68630055	      2.15898435	    -12.58841218	      7.56914418	      2.38977809	     11.06426791	     -1.53685615	     -5.52985134	     -0.42872087	    -11.69851721	      7.37938563	     -2.96739869	     -6.10924083	      5.02663502
      1.77883333	      1.26822335	      5.04836995	     -4.59791899	      1.37854116	      1.02260010	      0.23422471	     16.27830243	     -5.40429040	      0.21057353	    -60.10623545	      2.27994042	    -12.60104926	      7.54974233	      2.01964966	     11.02382457	     -1.28548036	     -5.34378163	     -0.34059003	    -11.55202292	      7.37443787	     -2.98546031	     -5.98397916	      4.92591259
      1.78300000	      1.27177552	      4.96648889	     -4.29761685	      1.38304472	      1.02292681	      0.23367005	     16.65108787	     -5.29974751	      0.05045986	    -59.48328348	      2.36129483	    -12.60786159	      7.48971829	      1.60578703	     10.97619118	     -0.99200900	     -5.15807911	     -0.22284243	    -11.46852238	      7.35197227	     -3.04892691	     -5.89446205	      4.56981701
      1.78716667	      1.22791075	      4.91871909	     -4.00908479	      1.38752569	      1.02311839	      0.23313339	     17.09306333	     -5.23570197	     -0.09843606	    -58.87662045	      2.48466071	    -12.59468699	      7.47235864	      1.25454289	     10.95469973	     -0.74699681	     -4.98124825	     -0.14877431	    -11.31945606	      7.34859389	     -3.05295971	     -5.81696077	      4.51516576
      1.79133333	      1.19544524	      4.83984315	     -3.69834318	      1.39202229	      1.02334319	      0.23258698	     17.48678371	     -5.14385047	     -0.26620852	    -58.20117378	      2.55740487	    -12.55760350	      7.44407770	      0.89523263	     10.89691139	     -0.46079969	     -4.82831789	     -0.03843623	    -11.20126335	      7.34039035	     -3.06994611	     -5.73445481	      4.32748642
      1.79550000	      1.15886445	      4.77693651	     -3.39887299	      1.39648055	      1.02352524	      0.23206393	     17.88600171	     -5.06989047	     -0.41568584	    -57.51615059	      2.64588917	    -12.52019288	      7.41663433	      0.54471846	     10.85177646	     -0.18946398	     -4.67376730	      0.06353502	    -11.08922206	      7.33303925	     -3.08788836	     -5.65351168	      4.13302376
      1.79966667	      1.14860641	      4.72348911	     -3.11627041	      1.40094764	      1.02371576	      0.23156745	     18.25215802	     -5.00863593	     -0.54754411	    -56.81035557	      2.72551252	    -12.46773396	      7.39180345	      0.16393182	     10.81431770	      0.06621533	     -4.50470078	      0.15339465	    -10.96746906	      7.32661811	     -3.13220924	     -5.58452206	      3.96182914
      1.80383333	      1.13909135	      4.67580207	     -2.82472823	      1.40543962	      1.02387018	      0.23105974	     18.60492381	     -4.96273763	     -0.68659213	    -56.08469967	      2.79444702	    -12.39805672	      7.34763983	     -0.22258872	     10.78087801	      0.35293597	     -4.33556816	      0.27103375	    -10.89219949	      7.31358841	     -3.17544413	     -5.51569025	      3.65081397
      1.80800000	      1.09316553	      4.62583374	     -2.52747950	      1.40988730	      1.02395470	      0.23057615	     18.98511890	     -4.90896212	     -0.81513332	    -55.33198474	      2.86489375	    -12.32778987	      7.30588521	     -0.55440468	     10.73622106	      0.62905548	     -4.18856101	      0.35881034	    -10.78285137	      7.30007052	     -3.18414261	     -5.45672307	      3.45357830
      1.81216667	      1.06694460	      4.59063474	     -2.24105968	      1.41434514	      1.02402799	      0.23010629	     19.34283776	     -4.87619579	     -0.93281961	    -54.56837389	      2.93641544	    -12.23389804	      7.27454946	     -0.90266590	     10.70526614	      0.88093182	     -4.04763459	      0.46023559	    -10.67062498	      7.29287270	     -3.20164132	     -5.41111840	      3.30476967
      1.81633333	      1.02380448	      4.55999568	     -1.95637568	      1.41884284	      1.02405754	      0.22964879	     19.70687760	     -4.85306726	     -1.05308036	    -53.78316932	      3.00180516	    -12.14830533	      7.26531844	     -1.24262567	     10.67415072	      1.12975042	     -3.88831892	      0.53845758	    -10.51985484	      7.29279159	     -3.20429519	     -5.36673902	      3.24707233
      1.82050000	      1.02051552	      4.51974678	     -1.65694365	      1.42324434	      1.02412602	      0.22918255	     20.01256183	     -4.82699107	     -1.18236673	    -52.96228542	      3.05431830	    -12.02302826	      7.23878862	     -1.59824103	     10.63109252	      1.41356375	     -3.78173274	      0.66172153	    -10.45276639	      7.28767419	     -3.26444512	     -5.32272830	      2.93134740
      1.82466667	      0.96752653	      4.49243564	     -1.36883764	      1.42771102	      1.02409322	      0.22875240	     20.36457968	     -4.80810524	     -1.28683219	    -52.13264507	      3.10592183	    -11.91676694	      7.22982070	     -1.90903206	     10.59490445	      1.65152346	     -3.65960137	      0.75487842	    -10.32520276	      7.28789994	     -3.26000267	     -5.29151268	      2.86171926
      1.82883333	      0.93982353	      4.45584765	     -1.07479297	      1.43213045	      1.02409478	      0.22831247	     20.67409449	     -4.78764482	     -1.40311791	    -51.27012729	      3.13415177	    -11.80076038	      7.22295293	     -2.23787170	     10.54673442	      1.90739609	     -3.54865187	      0.86648967	    -10.20082270	      7.29003118	     -3.28016260	     -5.24698427	      2.72705811
      1.83300000	      0.92521805	      4.44868422	     -0.79923095	      1.43658150	      1.02404176	      0.22791247	     20.97556821	     -4.79911339	     -1.50050658	    -50.41985799	      3.16925937	    -11.66847646	      7.21195109	     -2.59887717	     10.52692935	      2.15641944	     -3.40047272	      0.99075564	    -10.10540602	      7.29329624	     -3.32152462	     -5.23736477	      2.45141637
      1.83716667	      0.89811196	      4.42518907	     -0.52093881	      1.44102809	      1.02397234	      0.22750804	     21.27115162	     -4.79404547	     -1.59820475	    -49.53250060	      3.19233582	    -11.54547976	      7.20672274	     -2.93186354	     10.48650401	      2.39405757	     -3.28027203	      1.10479089	     -9.98601804	      7.29701827	     -3.34843709	     -5.21169366	      2.31509415
      1.84133333	      0.86245018	      4.41844531	     -0.23952978	      1.44544798	      1.02386270	      0.22711598	     21.57474567	     -4.80983920	     -1.69337275	    -48.64336426	      3.20508211	    -11.42614716	      7.20530828	     -3.24129015	     10.46043093	      2.63282709	     -3.18998906	      1.21591642	     -9.85702929	      7.30227706	     -3.36612254	     -5.20317555	      2.23259839
      1.84550000	      0.83622372	      4.40578095	      0.03584416	      1.44988775	      1.02374528	      0.22673411	     21.85262047	     -4.82250827	     -1.79090587	    -47.72860261	      3.21054252	    -11.30175024	      7.20560394	     -3.56623237	     10.42507479	      2.85837582	     -3.08658338	      1.34707419	     -9.72970713	      7.30955964	     -3.39340398	     -5.18779990	      2.09905292
      1.84966667	      0.83495173	      4.40164011	      0.29676659	      1.45431829	      1.02362977	      0.22637530	     22.10021029	     -4.84315631	     -1.87847900	    -46.80701615	      3.21149422	    -11.17724223	      7.20959881	     -3.92716996	     10.39629224	      3.07577427	     -2.96237691	      1.49501380	     -9.60799553	      7.32221476	     -3.45133703	     -5.18410246	      1.85792300
      1.85383333	      0.77696308	      4.39922507	      0.56768400	      1.45878227	      1.02340944	      0.22602674	     22.39890898	     -4.86728660	     -1.96770406	    -45.87340264	      3.20017526	    -11.06470855	      7.21203130	     -4.21833299	     10.36519009	      3.29530695	     -2.85507330	      1.61102549	     -9.47065789	      7.33018502	     -3.44213166	     -5.18806760	      1.80288950
      1.85800000	      0.77504480	      4.40042151	      0.82629135	      1.46320847	      1.02325553	      0.22568302	     22.62573246	     -4.89715996	     -2.05459906	    -44.91640494	      3.17825316	    -10.95455068	      7.22135233	     -4.56291350	     10.33664136	      3.50346958	     -2.76144998	      1.77567047	     -9.33718665	      7.34643134	     -3.49888536	     -5.18634744	      1.58352654
      1.86216667	      0.72534519	      4.40143150	      1.09920431	      1.46768308	      1.02301725	      0.22533537	     22.89116572	     -4.93265469	     -2.15339960	    -43.95043690	      3.14969453	    -10.84371425	      7.22704039	     -4.85533059	     10.30425848	      3.71778154	     -2.67607985	      1.90912810	     -9.20271479	      7.35781422	     -3.49016200	     -5.18472733	      1.51553537
      1.86633333	      0.69463131	      4.40164829	      1.36211908	      1.47213090	      1.02277640	      0.22501469	     23.13294594	     -4.96523217	     -2.24907121	    -42.97978602	      3.11751541	    -10.74175570	      7.23359779	     -5.17205283	     10.26758844	      3.92563018	     -2.57433142	      2.05887832	     -9.06325787	      7.36928387	     -3.52258123	     -5.19334655	      1.42542556
      1.87050000	      0.69339855	      4.41563921	      1.62089215	      1.47659156	      1.02255130	      0.22470245	     23.33244952	     -5.01381936	     -2.34273214	    -41.99305923	      3.07650795	    -10.66207600	      7.25384033	     -5.52303789	     10.24183114	      4.12383940	     -2.46821291	      2.21409012	     -8.90954758	      7.39574044	     -3.58160854	     -5.20680893	      1.18956725
      1.87466667	      0.65527425	      4.43024869	      1.86610939	      1.48108579	      1.02224146	      0.22440861	     23.56922435	     -5.06216210	     -2.43213577	    -41.01125015	      3.04663119	    -10.55400648	      7.26186643	     -5.82824899	     10.21832751	      4.31769683	     -2.38257745	      2.37249376	     -8.78092606	      7.40868751	     -3.58957687	     -5.22386279	      1.14872806
      1.87883333	      0.63167206	      4.43841036	      2.12020858	      1.48558507	      1.02195418	      0.22411063	     23.77025230	     -5.10867542	     -2.53939328	    -40.00199679	      3.00164499	    -10.45707140	      7.27123517	     -6.15086271	     10.18300862	      4.51095861	     -2.29029534	      2.52734752	     -8.64653565	      7.42195179	     -3.61761493	     -5.23349212	      1.07496384
